<?xml version="1.0" encoding="UTF-8"?>
<svg version="1.1" xmlns="http://www.w3.org/2000/svg" width="322" height="200">
<path d="M0 0 C0.66 0 1.32 0 2 0 C2.32613281 0.67546875 2.65226562 1.3509375 2.98828125 2.046875 C3.64376953 3.38492188 3.64376953 3.38492188 4.3125 4.75 C4.74175781 5.63171875 5.17101563 6.5134375 5.61328125 7.421875 C6.88676429 10.0225371 6.88676429 10.0225371 8.75 11.98828125 C10 14 10 14 9.63671875 16.49609375 C9.32347656 17.46675781 9.01023437 18.43742187 8.6875 19.4375 C4.55048859 35.51584129 5.70342977 52.71919733 13.85546875 67.32421875 C15.04351677 69.19815017 16.26907541 71.04936139 17.546875 72.86328125 C19 75 19 75 20 78 C21.485 78.495 21.485 78.495 23 79 C25.62188451 82.52945992 26.60320442 85.63524864 27 90 C26.67 90.33 26.34 90.66 26 91 C26.60803467 90.96011963 27.21606934 90.92023926 27.8425293 90.87915039 C34.57344189 90.63047931 39.62584399 91.89005341 45.8125 94.4375 C60.1886704 100.14951106 74.15252834 100.81891624 89 96 C89.90234375 95.71382813 90.8046875 95.42765625 91.734375 95.1328125 C93.83190102 94.44883662 95.91763403 93.72882809 98 93 C98.4284736 100.42687567 97.36274668 108.27450663 94 115 C88.17368194 117.07547302 82.00025327 117.35345019 75.875 117.3125 C75.06184326 117.31121094 74.24868652 117.30992187 73.41088867 117.30859375 C65.6925177 117.18802953 58.47703655 115.87764147 51 114 C50.46503906 114.95003906 49.93007812 115.90007812 49.37890625 116.87890625 C46.627778 120.48835037 45.29358451 121.02525925 40.9375 121.9375 C39.37322266 122.29134766 39.37322266 122.29134766 37.77734375 122.65234375 C35 123 35 123 32 122 C31.34 122.99 30.68 123.98 30 125 C28.125 124.875 28.125 124.875 26 124 C24.75 120.9375 24.75 120.9375 24 118 C24 119.33349608 24.03472486 120.66679321 24.0625 122 C24 125 24 125 23 126 C21.33382885 126.04063832 19.66611905 126.042721 18 126 C17.34 124.35 16.68 122.7 16 121 C16 121.33 16 121.66 16 122 C15.67619874 123.33568021 15.34342449 124.66923011 15 126 C12.23735711 126.59732819 9.83967231 127 7 127 C6.505 127.495 6.505 127.495 6 128 C4.00041636 128.04080783 1.99954746 128.04254356 0 128 C-0.495 125.525 -0.495 125.525 -1 123 C1.97 122.01 1.97 122.01 5 121 C3.93354885 119.70366379 3.93354885 119.70366379 1.4375 119.9375 C0.633125 119.958125 -0.17125 119.97875 -1 120 C-2.0625 118.125 -2.0625 118.125 -3 116 C-2.505 115.01 -2.505 115.01 -2 114 C0.32156597 113.59270772 2.6568787 113.25561323 5 113 C4.67 112.34 4.34 111.68 4 111 C0.535 111.495 0.535 111.495 -3 112 C-3.495 109.525 -3.495 109.525 -4 107 C-1 105 -1 105 3 105 C2.67 104.34 2.34 103.68 2 103 C1.030625 103.185625 0.06125 103.37125 -0.9375 103.5625 C-2.4534375 103.7790625 -2.4534375 103.7790625 -4 104 C-4.33 103.67 -4.66 103.34 -5 103 C-4.979375 102.13375 -4.95875 101.2675 -4.9375 100.375 C-4.84504151 96.97108708 -4.84504151 96.97108708 -6 93.75 C-7.21552096 89.1917964 -7.76233231 84.68875355 -7 80 C-5.91796875 78.265625 -5.91796875 78.265625 -4 77 C-0.3125 76.3125 -0.3125 76.3125 3 76 C2.40251953 74.67548828 2.40251953 74.67548828 1.79296875 73.32421875 C-7.6063328 52.03285685 -10.67406712 29.28063834 -2.91015625 6.8515625 C-1.99824015 4.53445183 -1.04697704 2.25870681 0 0 Z M20 92 C24 93 24 93 24 93 Z M3 98 C4 102 4 102 4 102 Z M20 100 C24 101 24 101 24 101 Z M27 101 C28 103 28 103 28 103 Z M28 105 C29 108 29 108 29 108 Z M29 111 C30 114 30 114 30 114 Z M6 115 C7 118 7 118 7 118 Z M30 116 C31 120 31 120 31 120 Z " fill="#FCBE12" transform="translate(15,57)"/>
<path d="M0 0 C-3.63637419 7.51517333 -8.05857957 16.05857957 -14 22 C-16.27637555 22.64041256 -18.57201073 23.2131068 -20.875 23.75 C-37.54266788 27.94739807 -50.04920839 36.99593278 -60 51 C-61.53878744 53.63377365 -62.7833452 56.19640416 -64 59 C-64.66 59 -65.32 59 -66 59 C-67.2052222 56.77890472 -68.38887404 54.5502135 -69.5625 52.3125 C-70.07586914 51.37374023 -70.07586914 51.37374023 -70.59960938 50.41601562 C-72.04948218 47.61878627 -73.01894886 45.51692484 -72.90234375 42.3359375 C-66.65121939 26.15337313 -50.10765226 13.24366809 -34.78100586 6.32714844 C-23.31021909 1.43628827 -12.47428513 -0.69194802 0 0 Z " fill="#DC1F27" transform="translate(91,9)"/>
<path d="M0 0 C-3.8044284 13.42739436 -11.31140704 23.29728373 -21 33 C-21.65742188 33.66902344 -22.31484375 34.33804688 -22.9921875 35.02734375 C-30.71400666 42.33490223 -45.05720973 52 -56 52 C-55.80664062 51.27296875 -55.61328125 50.5459375 -55.4140625 49.796875 C-55.15367188 48.79140625 -54.89328125 47.7859375 -54.625 46.75 C-54.34140625 45.65816406 -54.0578125 44.56632812 -53.765625 43.44140625 C-53.03738873 40.16805852 -52.69522707 37.02038962 -52.375 33.6875 C-51.65105364 29.01530834 -50.58611288 27.04803904 -46.8125 24.1875 C-45.2091634 23.12374783 -43.60501845 22.06121286 -42 21 C-37.47658085 17.04200825 -33.83720807 12.65746083 -30.45703125 7.69921875 C-27.138318 3.82886952 -23.12472026 3.59603567 -18.25 3 C-14.2022955 2.46929161 -10.26077836 1.91905126 -6.3125 0.875 C-3 0 -3 0 0 0 Z " fill="#16A24A" transform="translate(168,119)"/>
<path d="M0 0 C22.93333333 0 22.93333333 0 28.875 3.875 C32.44653149 7.44653149 33.30472928 10.35767073 33.375 15.375 C33.27484058 20.38964829 32.44257804 23.18525136 29 27 C27.34699775 28.35023669 25.68206619 29.68614731 24 31 C24.36351562 31.54003662 24.72703125 32.08007324 25.1015625 32.63647461 C26.73675411 35.06856008 28.36841945 37.50299073 30 39.9375 C30.57234375 40.78763672 31.1446875 41.63777344 31.734375 42.51367188 C32.27578125 43.32255859 32.8171875 44.13144531 33.375 44.96484375 C33.87773437 45.7137085 34.38046875 46.46257324 34.8984375 47.23413086 C36 49 36 49 36 50 C31.92598121 51.29919497 29.04187134 51.49245855 25 50 C21.81345918 46.55288207 19.47723686 42.54785127 17.14941406 38.49072266 C16.67987305 37.68038574 16.21033203 36.87004883 15.7265625 36.03515625 C15.11675537 34.91185913 15.11675537 34.91185913 14.49462891 33.76586914 C12.82905518 31.42694325 12.82905518 31.42694325 8 31 C8 37.27 8 43.54 8 50 C5.36 50 2.72 50 0 50 C0 33.5 0 17 0 0 Z M8 9 C8 13.62 8 18.24 8 23 C9.7325 23.04125 11.465 23.0825 13.25 23.125 C14.22453125 23.14820313 15.1990625 23.17140625 16.203125 23.1953125 C19.06975538 22.99512881 20.63303088 22.59757058 23 21 C24.59152808 18.22556523 24.59152808 18.22556523 25 15 C23.69132936 12.05549106 22.90597137 10.45298569 20 9 C17.95944995 8.92934383 15.91665743 8.91578024 13.875 8.9375 C11.93625 8.958125 9.9975 8.97875 8 9 Z " fill="#414141" transform="translate(266,24)"/>
<path d="M0 0 C2.64314328 2.26555138 4.14096809 4.11704374 5.625 7.25 C5.625 7.91 5.625 8.57 5.625 9.25 C2.25402617 10.74821059 0.42057881 11.25 -3.375 11.25 C-3.7875 10.59 -4.2 9.93 -4.625 9.25 C-6.15005028 7.08599563 -6.15005028 7.08599563 -8.26953125 6.9140625 C-10.73685359 6.82886135 -10.73685359 6.82886135 -14.375 7.25 C-16.63050736 9.05953088 -16.63050736 9.05953088 -16.5 11.625 C-14.75834964 15.68885085 -11.23133139 16.60178006 -7.375 18.25 C4.21937589 23.34528626 4.21937589 23.34528626 6.625 29.25 C7.41309804 33.90118573 7.72721903 38.19203624 5.44921875 42.4453125 C1.96794037 46.74518605 -1.46305042 48.92362428 -7.05859375 49.55078125 C-13.55393197 49.57842099 -18.11675581 49.29754942 -23.06640625 44.66796875 C-25.68461303 41.87966965 -27.25743354 40.17093731 -27.75 36.3125 C-27.564375 35.2915625 -27.564375 35.2915625 -27.375 34.25 C-24.46899739 32.99335022 -22.57895416 32.25 -19.375 32.25 C-18.0023318 34.22321053 -16.67072383 36.22543152 -15.375 38.25 C-12.02172361 40.48551759 -11.46756343 40.42283528 -7.6875 39.875 C-6.87925781 39.76414063 -6.07101563 39.65328125 -5.23828125 39.5390625 C-4.62339844 39.44367188 -4.00851563 39.34828125 -3.375 39.25 C-3.375 36.61 -3.375 33.97 -3.375 31.25 C-4.31859375 30.77820312 -4.31859375 30.77820312 -5.28125 30.296875 C-7.0666694 29.4041653 -8.85043292 28.50813864 -10.6328125 27.609375 C-12.3026167 26.78160882 -13.98282463 25.97390339 -15.6796875 25.203125 C-19.9887874 23.21931297 -22.99172944 21.53988702 -25.375 17.25 C-26.70897784 12.62031221 -27.01639347 8.72352731 -24.75 4.375 C-21.87056977 0.58627602 -19.58482269 -1.01339244 -15.125 -2.5 C-9.59300623 -3.00290852 -4.96574642 -2.57483148 0 0 Z " fill="#404040" transform="translate(213.375,25.75)"/>
<path d="M0 0 C23.4 0 23.4 0 30 5.5 C33.73717713 10.17147141 33.63701916 15.2488834 33 21 C30.63339596 25.91525454 27.73325113 28.37901748 23 31 C20.18241229 31.28460482 17.90056159 31.38874738 15.125 31.25 C12.77375 31.1675 10.4225 31.085 8 31 C8 37.27 8 43.54 8 50 C5.36 50 2.72 50 0 50 C0 33.5 0 17 0 0 Z M8 9 C8 13.62 8 18.24 8 23 C9.8975 23.0825 11.795 23.165 13.75 23.25 C15.35101563 23.31960937 15.35101563 23.31960937 16.984375 23.390625 C20.67267467 22.91286598 21.72798447 21.86795403 24 19 C25.07642709 17.11149645 25.07642709 17.11149645 25 15 C23.23136411 11.30240822 23.23136411 11.30240822 20 9 C17.95944995 8.92934383 15.91665743 8.91578024 13.875 8.9375 C11.93625 8.958125 9.9975 8.97875 8 9 Z " fill="#414141" transform="translate(227,24)"/>
<path d="M0 0 C3.5849466 2.95317322 5.69915071 4.92673519 6.171875 9.78125 C6.30205902 16.13856944 5.16294642 19.15827289 0.96875 24.0078125 C-3.61419664 26.58571998 -7.89502622 26.42690385 -13.03125 25.6953125 C-17.17671557 23.84465823 -18.62013182 22.37166821 -20.96875 18.5078125 C-22.4130479 13.32533181 -22.64740282 8.72157475 -20.05078125 3.859375 C-15.17098964 -2.6154294 -6.90524788 -4.43529383 0 0 Z M-14.03125 5.6953125 C-16.43658071 7.67764763 -16.43658071 7.67764763 -16.40625 11.5078125 C-16.30621912 14.55875426 -15.9454547 15.8669031 -14.53125 18.6953125 C-11.48781951 21.13005689 -9.74751512 21.37926143 -5.93359375 21.109375 C-3.83291194 20.76779495 -3.83291194 20.76779495 -1.59375 19.1328125 C0.48733903 15.88631361 0.90124957 13.54283711 0.96875 9.6953125 C-0.30404909 6.68078833 -1.2990022 5.17585012 -4.03125 3.3828125 C-8.32168477 1.90797555 -10.45677735 3.31233073 -14.03125 5.6953125 Z " fill="#404141" transform="translate(57.03125,86.3046875)"/>
<path d="M0 0 C1.98 0 3.96 0 6 0 C7.96938498 2.36085294 9.38172633 4.36899401 10.875 7 C11.2771875 7.66773437 11.679375 8.33546875 12.09375 9.0234375 C13.08210073 10.67068871 14.04371066 12.33393145 15 14 C15.33 9.38 15.66 4.76 16 0 C17.65 0 19.3 0 21 0 C21 8.91 21 17.82 21 27 C16 27 16 27 14.5144043 25.53125 C14.12164307 24.8609375 13.72888184 24.190625 13.32421875 23.5 C12.88916016 22.778125 12.45410156 22.05625 12.00585938 21.3125 C11.57080078 20.549375 11.13574219 19.78625 10.6875 19 C10.23310547 18.236875 9.77871094 17.47375 9.31054688 16.6875 C8.19062327 14.80131287 7.09313287 12.90183893 6 11 C5.67 16.28 5.34 21.56 5 27 C3.35 27 1.7 27 0 27 C0 18.09 0 9.18 0 0 Z " fill="#414141" transform="translate(74,85)"/>
<path d="M0 0 C1.65 0 3.3 0 5 0 C5 3.63 5 7.26 5 11 C8.63 11 12.26 11 16 11 C16 7.37 16 3.74 16 0 C17.65 0 19.3 0 21 0 C21 8.91 21 17.82 21 27 C19.35 27 17.7 27 16 27 C16 23.37 16 19.74 16 16 C12.37 16 8.74 16 5 16 C5 19.63 5 23.26 5 27 C3.35 27 1.7 27 0 27 C0 18.09 0 9.18 0 0 Z " fill="#414041" transform="translate(280,85)"/>
<path d="M0 0 C2.4375 1.9375 2.4375 1.9375 4 4 C4 4.66 4 5.32 4 6 C1.625 6.625 1.625 6.625 -1 7 C-1.66 6.34 -2.32 5.68 -3 5 C-5.58354218 4.83312552 -5.58354218 4.83312552 -8 5 C-7.02623233 7.42180559 -6.42028986 8.74300747 -4.16015625 10.125 C-3.12181641 10.558125 -3.12181641 10.558125 -2.0625 11 C3.56412707 13.64962984 3.56412707 13.64962984 5 17 C4.93600929 20.64747047 4.76209885 23.01562232 2.5 25.9375 C-1.34376707 27.571101 -4.89979715 27.79523507 -9 27 C-12.0625 24.6875 -12.0625 24.6875 -14 22 C-14 21.01 -14 20.02 -14 19 C-11.75 18.25 -11.75 18.25 -9 18 C-6.6875 19.9375 -6.6875 19.9375 -5 22 C-4.01 21.67 -3.02 21.34 -2 21 C-1.26676204 18.98491642 -1.26676204 18.98491642 -1 17 C-1.61488281 16.81824219 -2.22976562 16.63648437 -2.86328125 16.44921875 C-3.67152344 16.19785156 -4.47976562 15.94648437 -5.3125 15.6875 C-6.11300781 15.44386719 -6.91351563 15.20023438 -7.73828125 14.94921875 C-10.17392799 13.92700432 -11.42125475 13.11000555 -13 11 C-13.55618667 8.295406 -13.42629934 5.72263177 -13 3 C-9.74576286 -1.80387388 -5.17069748 -1.17928188 0 0 Z " fill="#414141" transform="translate(119,85)"/>
<path d="M0 0 C1.65 0 3.3 0 5 0 C5.02578125 1.25296875 5.0515625 2.5059375 5.078125 3.796875 C5.13441169 5.44795123 5.1917589 7.09899155 5.25 8.75 C5.26417969 9.575 5.27835938 10.4 5.29296875 11.25 C5.44843823 15.10564321 5.55135553 17.35629271 7.796875 20.578125 C10.12312018 22.36150839 10.12312018 22.36150839 14 22 C14.7795458 19.19252545 15.1710149 16.57970192 15.31640625 13.671875 C15.35830078 12.87265625 15.40019531 12.0734375 15.44335938 11.25 C15.48267578 10.425 15.52199219 9.6 15.5625 8.75 C15.60568359 7.90953125 15.64886719 7.0690625 15.69335938 6.203125 C15.79908543 4.13559329 15.90001295 2.06781719 16 0 C17.65 0 19.3 0 21 0 C21.0875127 3.22899426 21.14056146 6.45768116 21.1875 9.6875 C21.21263672 10.59951172 21.23777344 11.51152344 21.26367188 12.45117188 C21.31842942 17.47061326 21.30840308 20.93859476 18 25 C15.52964288 27.47035712 14.6039993 27.35042281 11.1875 27.4375 C7.20767237 27.36848565 6.24387828 27.18415298 2.9375 24.6875 C0.420151 21.19569333 -0.12579591 18.74359088 -0.09765625 14.55078125 C-0.09443359 13.70322266 -0.09121094 12.85566406 -0.08789062 11.98242188 C-0.07951172 11.10134766 -0.07113281 10.22027344 -0.0625 9.3125 C-0.05798828 8.41982422 -0.05347656 7.52714844 -0.04882812 6.60742188 C-0.03704983 4.40488013 -0.02060164 2.20247401 0 0 Z " fill="#414141" transform="translate(133,85)"/>
<path d="M0 0 C2.5625 1.5625 2.5625 1.5625 4 3 C3.34 4.32 2.68 5.64 2 7 C1.46375 6.855625 0.9275 6.71125 0.375 6.5625 C-0.40875 6.376875 -1.1925 6.19125 -2 6 C-2.969375 5.7525 -3.93875 5.505 -4.9375 5.25 C-8.67115458 4.94521187 -10.07476285 5.74338849 -13 8 C-14.54586876 11.09173752 -14.29359521 13.59429552 -14 17 C-12.2235196 19.41093768 -10.7841608 20.6079196 -8.125 21.9375 C-5.75074245 22.18024631 -5.75074245 22.18024631 -3 20.4375 C0 19 0 19 2.375 19.8125 C2.91125 20.204375 3.4475 20.59625 4 21 C3.75 22.875 3.75 22.875 3 25 C-1.58202368 27.98827631 -6.73979202 27.5002278 -12 27 C-15.19556529 25.73508874 -16.53559295 24.51244916 -18.8125 22 C-20.65519446 17.34477189 -20.63778003 12.93554777 -20 8 C-18.14934573 3.85453443 -16.67635571 2.41111818 -12.8125 0.0625 C-8.20570061 -1.22136213 -4.61506986 -1.20276917 0 0 Z " fill="#404040" transform="translate(265,85)"/>
<path d="M0 0 C5.28 0 10.56 0 16 0 C16 1.65 16 3.3 16 5 C12.37 5 8.74 5 5 5 C5 6.98 5 8.96 5 11 C8.3 11 11.6 11 15 11 C15 12.65 15 14.3 15 16 C11.7 16 8.4 16 5 16 C5 17.98 5 19.96 5 22 C8.63 22 12.26 22 16 22 C16 23.65 16 25.3 16 27 C10.72 27 5.44 27 0 27 C0 18.09 0 9.18 0 0 Z " fill="#414141" transform="translate(219,85)"/>
<path d="M0 0 C6.27 0 12.54 0 19 0 C19 1.65 19 3.3 19 5 C16.69 5 14.38 5 12 5 C12 12.26 12 19.52 12 27 C10.35 27 8.7 27 7 27 C7 19.74 7 12.48 7 5 C4.69 5 2.38 5 0 5 C0 3.35 0 1.7 0 0 Z " fill="#414141" transform="translate(189,85)"/>
<path d="M0 0 C1.65 0 3.3 0 5 0 C5 7.26 5 14.52 5 22 C8.63 22 12.26 22 16 22 C16 23.65 16 25.3 16 27 C10.72 27 5.44 27 0 27 C0 18.09 0 9.18 0 0 Z " fill="#414140" transform="translate(165,85)"/>
<path d="M0 0 C0.66 0 1.32 0 2 0 C3.32421875 1.42578125 3.32421875 1.42578125 4.6875 3.3125 C5.14511719 3.92738281 5.60273438 4.54226562 6.07421875 5.17578125 C6.53248047 6.07876953 6.53248047 6.07876953 7 7 C6.67 7.99 6.34 8.98 6 10 C5.01 9.67 4.02 9.34 3 9 C3.33 10.32 3.66 11.64 4 13 C3.01 13.495 3.01 13.495 2 14 C-0.35981813 13.06421005 -2.69631264 12.06652192 -5 11 C-3.87548273 13.9719385 -2.77706209 16.33440687 -1 19 C-5.67325155 19 -7.82359047 17.92757363 -12 16 C-11.67 15.34 -11.34 14.68 -11 14 C-10.01 14 -9.02 14 -8 14 C-7.855625 13.38125 -7.71125 12.7625 -7.5625 12.125 C-7 10 -7 10 -6 8 C-4.68 8 -3.36 8 -2 8 C-2 7.01 -2 6.02 -2 5 C-1.34 4.67 -0.68 4.34 0 4 C0 2.68 0 1.36 0 0 Z " fill="#231F20" transform="translate(166,139)"/>
<path d="M0 0 C2.18975773 3.28463659 2.99806563 6.20696275 4 10 C2.35 9.67 0.7 9.34 -1 9 C-1.33 9.99 -1.66 10.98 -2 12 C-2.99 11.67 -3.98 11.34 -5 11 C-5.73046875 9.15234375 -5.73046875 9.15234375 -6.1875 6.9375 C-6.34605469 6.20402344 -6.50460938 5.47054687 -6.66796875 4.71484375 C-6.77753906 4.14894531 -6.88710937 3.58304688 -7 3 C-5.68 3 -4.36 3 -3 3 C-2.67 2.67 -2.34 2.34 -2 2 C-1.34 1.34 -0.68 0.68 0 0 Z " fill="#212021" transform="translate(124,174)"/>
<path d="M0 0 C3.375 -0.1875 3.375 -0.1875 7 0 C9 3 9 3 8.625 6.1875 C8.41875 7.115625 8.2125 8.04375 8 9 C5.69 9.33 3.38 9.66 1 10 C0.67 6.7 0.34 3.4 0 0 Z M3 2 C3 3.65 3 5.3 3 7 C3.99 7 4.98 7 6 7 C5.67 5.35 5.34 3.7 5 2 C4.34 2 3.68 2 3 2 Z " fill="#222021" transform="translate(101,180)"/>
<path d="M0 0 C2.0625 0.4375 2.0625 0.4375 4 1 C4.33 2.32 4.66 3.64 5 5 C6.32 5 7.64 5 9 5 C9 5.66 9 6.32 9 7 C8.360625 7.103125 7.72125 7.20625 7.0625 7.3125 C6.381875 7.539375 5.70125 7.76625 5 8 C4.67 8.99 4.34 9.98 4 11 C1.69 9.02 -0.62 7.04 -3 5 C-1 1 -1 1 0 0 Z M1 3 C2 5 2 5 2 5 Z " fill="#241F21" transform="translate(152,156)"/>
<path d="M0 0 C0 0.66 0 1.32 0 2 C0.66 2.33 1.32 2.66 2 3 C2 3.99 2 4.98 2 6 C2.99 6 3.98 6 5 6 C4.67 6.99 4.34 7.98 4 9 C1.4375 10.1875 1.4375 10.1875 -1 11 C-1.83905565 9.87926138 -2.67107831 8.75325453 -3.5 7.625 C-3.9640625 6.99851563 -4.428125 6.37203125 -4.90625 5.7265625 C-6 4 -6 4 -6 2 C-3 0 -3 0 0 0 Z " fill="#231F20" transform="translate(149,161)"/>
<path d="M0 0 C0 0.99 0 1.98 0 3 C1.31266518 4.35368596 2.64567325 5.68799596 4 7 C4 7.66 4 8.32 4 9 C2.02 9.66 0.04 10.32 -2 11 C-5.22265625 5.82421875 -5.22265625 5.82421875 -6 4 C-5.67 3.01 -5.34 2.02 -5 1 C-3 0 -3 0 0 0 Z " fill="#231F20" transform="translate(135,170)"/>
<path d="M0 0 C1.69141656 0.08963062 3.37959602 0.24577676 5.0625 0.4375 C6.44115234 0.59025391 6.44115234 0.59025391 7.84765625 0.74609375 C8.55792969 0.82988281 9.26820313 0.91367188 10 1 C10 1.99 10 2.98 10 4 C9.01 4.33 8.02 4.66 7 5 C6.67 6.65 6.34 8.3 6 10 C3.03595495 7.19195732 0.55500981 4.81684226 -1 1 C-0.67 0.67 -0.34 0.34 0 0 Z " fill="#221F1F" transform="translate(169,135)"/>
<path d="M0 0 C0.99 0 1.98 0 3 0 C3.67154933 1.28913487 4.33708859 2.58140204 5 3.875 C5.37125 4.59429687 5.7425 5.31359375 6.125 6.0546875 C7 8 7 8 7 10 C6.01 10 5.02 10 4 10 C4 9.34 4 8.68 4 8 C2.02 8.66 0.04 9.32 -2 10 C-1.125 2.25 -1.125 2.25 0 0 Z " fill="#222021" transform="translate(94,181)"/>
<path d="M0 0 C0.99 0 1.98 0 3 0 C3.66 3.3 4.32 6.6 5 10 C4.01 10 3.02 10 2 10 C2 9.01 2 8.02 2 7 C0.02 7.66 -1.96 8.32 -4 9 C-3.47557578 5.2241456 -2.67345333 2.77627845 0 0 Z " fill="#21201F" transform="translate(68,181)"/>
<path d="M0 0 C0.66 0 1.32 0 2 0 C2 1.32 2 2.64 2 4 C2.99 4 3.98 4 5 4 C5 3.01 5 2.02 5 1 C5.66 1 6.32 1 7 1 C7 3.97 7 6.94 7 10 C6.34 10 5.68 10 5 10 C4.67 9.01 4.34 8.02 4 7 C3.34 6.67 2.68 6.34 2 6 C2 7.32 2 8.64 2 10 C1.01 10 0.02 10 -1 10 C-1.125 3.375 -1.125 3.375 0 0 Z " fill="#212021" transform="translate(75,181)"/>
<path d="M0 0 C0.88935377 3.303314 1.46274105 6.62294375 2 10 C-0.31 10 -2.62 10 -5 10 C-5 7.03 -5 4.06 -5 1 C-3.35 0.67 -1.7 0.34 0 0 Z " fill="#212021" transform="translate(89,181)"/>
<path d="M0 0 C0.66 0 1.32 0 2 0 C2.66 3.3 3.32 6.6 4 10 C-1.30479934 10 -2.18982627 8.4637943 -6 5 C-5.67 4.34 -5.34 3.68 -5 3 C-3.68 3.66 -2.36 4.32 -1 5 C-0.67 3.35 -0.34 1.7 0 0 Z " fill="#221F21" transform="translate(141,165)"/>
<path d="M0 0 C0.66 0 1.32 0 2 0 C3.0064275 1.66279327 4.00585407 3.32983484 5 5 C5.99 5.66 6.98 6.32 8 7 C8 7.66 8 8.32 8 9 C4.37 8.67 0.74 8.34 -3 8 C-2.67 7.01 -2.34 6.02 -2 5 C-1.34 4.67 -0.68 4.34 0 4 C0 2.68 0 1.36 0 0 Z " fill="#212021" transform="translate(174,125)"/>
<path d="M0 0 C1.98 0 3.96 0 6 0 C6 1.98 6 3.96 6 6 C4.02 6 2.04 6 0 6 C0 4.02 0 2.04 0 0 Z " fill="#93255E" transform="translate(307,106)"/>
<path d="M0 0 C0.66 0 1.32 0 2 0 C2.66 3.3 3.32 6.6 4 10 C3.01 10 2.02 10 1 10 C0.63883954 8.5225254 0.28624952 7.04295325 -0.0625 5.5625 C-0.25972656 4.73878906 -0.45695312 3.91507813 -0.66015625 3.06640625 C-0.82837891 2.04353516 -0.82837891 2.04353516 -1 1 C-0.67 0.67 -0.34 0.34 0 0 Z " fill="#222021" transform="translate(114,177)"/>
</svg>
